Coordinates
version=1
nRows=19
nColumns=24
inDegrees=yes

Units are S.I. units (second, meters, Newtons, ...)
Angles are in degrees.

endheader
time	pelvis_tilt	pelvis_list	pelvis_rotation	pelvis_tx	pelvis_ty	pelvis_tz	hip_flexion_r	hip_adduction_r	hip_rotation_r	knee_angle_r	ankle_angle_r	subtalar_angle_r	mtp_angle_r	hip_flexion_l	hip_adduction_l	hip_rotation_l	knee_angle_l	ankle_angle_l	subtalar_angle_l	mtp_angle_l	lumbar_extension	lumbar_bending	lumbar_rotation
      0.92933333	      2.16332601	      1.65089520	     -5.40392662	     -0.18869534	      1.00570166	      0.29648434	    -11.39991054	     -0.69354401	     -2.55034198	    -13.45256604	     15.80906570	     -2.27326751	      9.84956117	     17.44058323	      0.83585064	    -12.15168886	      3.22420522	     -1.53704582	     -5.30469874	      4.19717386	    -10.81559215	     -1.76995621	     11.57337729
      0.93350000	      2.21308232	      1.69875661	     -5.44347344	     -0.18278368	      1.00519232	      0.29617657	    -11.55896000	     -0.81123893	     -2.54921069	    -13.97353662	     15.87961973	     -2.31142487	      9.81010716	     17.35567472	      0.91840416	    -12.05345331	      3.27076960	     -1.36278263	     -5.32212298	      4.22827277	    -10.83073123	     -1.85361090	     11.64073634
      0.93766667	      2.28156749	      1.75898839	     -5.50423616	     -0.17685307	      1.00474301	      0.29588120	    -11.69974010	     -0.95814123	     -2.56949880	    -14.56884259	     15.98529328	     -2.19724642	      9.72367811	     17.23234342	      1.01190035	    -11.90290582	      3.27575564	     -1.25086191	     -5.39785396	      4.30544101	    -10.86809816	     -1.96747501	     11.80445336
      0.94183333	      2.33462988	      1.82884807	     -5.54173965	     -0.17088594	      1.00431908	      0.29556018	    -11.81828231	     -1.10480351	     -2.57636267	    -15.17568974	     15.97522478	     -2.26594168	      9.69175520	     17.15307929	      1.11433462	    -11.74901089	      3.14833350	     -1.11659159	     -5.46114772	      4.34214003	    -10.86870615	     -2.08048955	     11.84699097
      0.94600000	      2.39811661	      1.91719198	     -5.60438731	     -0.16490290	      1.00393518	      0.29522947	    -11.89636563	     -1.29202034	     -2.61231833	    -15.88266698	     16.03484017	     -2.14052291	      9.62251377	     17.03244357	      1.23877994	    -11.50437004	      3.01390392	     -1.07643695	     -5.66869890	      4.45280326	    -10.89063159	     -2.20882880	     11.98917462
      0.95016667	      2.46227325	      2.02019257	     -5.65148652	     -0.15888781	      1.00360081	      0.29491995	    -11.97526755	     -1.48049472	     -2.59287750	    -16.58745532	     16.00255504	     -2.18701617	      9.59680922	     16.93997120	      1.37354270	    -11.27963687	      2.75225418	     -1.00773284	     -5.79446195	      4.51856758	    -10.91185677	     -2.38228241	     12.03810882
      0.95433333	      2.51290378	      2.12451120	     -5.70380083	     -0.15286162	      1.00326348	      0.29457439	    -11.99393382	     -1.68174087	     -2.60957385	    -17.38337198	     15.97561575	     -2.14825791	      9.58399088	     16.85201602	      1.51303866	    -10.98921338	      2.45547838	     -1.00465665	     -6.02861660	      4.61159677	    -10.90919488	     -2.54528084	     12.12586538
      0.95850000	      2.58435273	      2.24109064	     -5.76183312	     -0.14680459	      1.00299569	      0.29421215	    -12.00051693	     -1.90745854	     -2.65484530	    -18.24408237	     15.91393380	     -2.07496179	      9.59547347	     16.72708099	      1.67276943	    -10.67038767	      2.14070501	     -1.08123346	     -6.34544289	      4.74373425	    -10.91243405	     -2.71714623	     12.21333342
      0.96266667	      2.65730453	      2.36350846	     -5.81522297	     -0.14072981	      1.00275771	      0.29382942	    -11.98422592	     -2.13944811	     -2.68633952	    -19.14908275	     15.79586786	     -2.04890185	      9.64080844	     16.60737162	      1.84104555	    -10.33079572	      1.76497438	     -1.17986166	     -6.66084805	      4.89187168	    -10.92665140	     -2.88377139	     12.27424860
      0.96683333	      2.70877158	      2.50434616	     -5.85827468	     -0.13462741	      1.00253292	      0.29344764	    -11.92571717	     -2.38264840	     -2.69482678	    -20.08557345	     15.62253518	     -2.06718850	      9.70403760	     16.53102683	      2.02651755	    -10.00965060	      1.30821681	     -1.28722281	     -6.93547828	      5.01371598	    -10.91967216	     -3.10195662	     12.31795368
      0.97100000	      2.77697406	      2.63715832	     -5.90973524	     -0.12852240	      1.00234240	      0.29301550	    -11.83059646	     -2.63674071	     -2.75493839	    -21.12751192	     15.43850649	     -2.00936027	      9.83272186	     16.41053529	      2.21547169	     -9.63182467	      0.87955050	     -1.48871926	     -7.34528671	      5.18343886	    -10.91356894	     -3.27502957	     12.37252229
      0.97516667	      2.84101927	      2.78856951	     -5.94880360	     -0.12239421	      1.00217521	      0.29257242	    -11.71280880	     -2.90403001	     -2.79454307	    -22.19772444	     15.18676938	     -2.00281333	     10.02106445	     16.30866263	      2.42719879	     -9.25544348	      0.39624287	     -1.70891601	     -7.74853800	      5.37676238	    -10.91592632	     -3.48799269	     12.40387308
      0.97933333	      2.92445899	      2.93149862	     -5.97329392	     -0.11627978	      1.00205793	      0.29209284	    -11.58455919	     -3.16660025	     -2.86481320	    -23.32408285	     14.88308197	     -1.98914078	     10.31616382	     16.19383055	      2.63898606	     -8.87532586	     -0.11930639	     -1.98288766	     -8.19909944	      5.62102369	    -10.93721108	     -3.69251052	     12.42210313
      0.98350000	      2.98104783	      3.09744958	     -6.02106097	     -0.11011278	      1.00193057	      0.29162966	    -11.37922790	     -3.45965791	     -2.91101285	    -24.53285187	     14.52662808	     -2.03079817	     10.61597109	     16.09157868	      2.86890010	     -8.54429989	     -0.62172217	     -2.23481783	     -8.55047624	      5.82790552	    -10.90297461	     -3.91392806	     12.42278648
      0.98766667	      3.08672017	      3.25341035	     -6.02313136	     -0.10396617	      1.00188985	      0.29110547	    -11.22568676	     -3.73737068	     -2.99455177	    -25.73044214	     13.99665102	     -2.18506353	     15.56137216	     15.96343146	      3.10346981	     -8.20838726	     -1.18354083	     -2.52787301	     -8.94252247	      8.72548475	    -10.95953209	     -4.13738091	     12.37211870
      0.99183333	      3.14323268	      3.42862072	     -6.05845247	     -0.09780806	      1.00180400	      0.29059551	    -10.95087939	     -4.04581425	     -3.05743251	    -27.05250985	     13.53717141	     -2.21642664	     15.59980720	     15.87840660	      3.34650832	     -7.94753005	     -1.73847541	     -2.80970970	     -9.22505314	      8.74475565	    -10.93363022	     -4.36911773	     12.39350425
      0.99600000	      3.21359452	      3.59669163	     -6.05595126	     -0.09166948	      1.00174996	      0.29002127	    -10.67361658	     -4.34356941	     -3.15718670	    -28.40372809	     12.99246020	     -2.26563848	     15.75341663	     15.77988030	      3.60027228	     -7.57675226	     -2.30112606	     -3.11150173	     -9.69232866	      8.78357706	    -10.93703725	     -4.59696414	     12.37393638
      1.00016667	      3.27840232	      3.78161842	     -6.08193000	     -0.08553205	      1.00170353	      0.28947946	    -10.33894660	     -4.66793797	     -3.22898018	    -29.83273626	     12.41162505	     -2.36597188	     15.89650859	     15.68825051	      3.85817045	     -7.35745479	     -2.86556800	     -3.42481580	     -9.97908937	      8.80676028	    -10.92277253	     -4.83795261	     12.32228397
      1.00433333	      3.35754871	      3.96713383	     -6.08224932	     -0.07941203	      1.00168764	      0.28889409	     -9.99557097	     -4.99358112	     -3.32778291	    -31.29767773	     11.76204990	     -2.46434036	     16.10243874	     15.58108545	      4.12744010	     -7.09441850	     -3.43322385	     -3.72082670	    -10.32690816	      8.83157765	    -10.93413757	     -5.08120259	     12.26079316
